Patient4_TMGait_0pt5_02_left_38_GRF.mot
version=1
nRows=58
nColumns=19
inDegrees=no
endheader
time	F1x	F1y	F1z	M1x	M1y	M1z	F2x	F2y	F2z	M2x	M2y	M2z	EC1x	EC1y	EC1z	EC2x	EC2y	EC2z
48.95	-1.4613	-13.5125	0.20456	1.412	-0.43909	-12.1492	-59.4294	766.76	-72.9718	305.6885	96.9557	824.2103	-0.0592	0.0182	-0.0073	-0.0462	0.0165	0.9585
48.9632	-1.0934	-8.5019	0.14908	0.7446	-0.37628	-7.6358	-54.3515	756.0609	-67.7581	300.5318	90.2146	810.7448	-0.0592	0.0182	-0.0073	-0.0462	0.0165	0.9585
48.9764	-0.75816	-4.2339	0.10473	0.17271	-0.30554	-3.7658	-49.3761	744.7162	-62.773	295.2811	83.542	796.0057	-0.0592	0.0182	-0.0073	-0.0462	0.0165	0.9585
48.9896	-0.49061	-0.95171	0.084387	-0.26951	-0.25567	-0.76301	-44.8084	733.8731	-58.286	290.4393	77.3198	781.2491	-0.0592	0.0182	-0.0073	-0.0462	0.0165	0.9585
49.0029	-0.3037	1.3535	0.06853	-0.58559	-0.21384	1.3701	-40.7997	724.6378	-54.4273	286.4481	71.7696	767.7027	-0.0592	0.0182	-0.0073	-0.0462	0.0165	0.9585
49.0161	-0.19891	2.8076	0.076202	-0.78942	-0.20199	2.7428	-37.3688	717.9127	-51.1979	283.645	66.9525	756.3502	-0.0592	0.0182	-0.0073	-0.0462	0.0165	0.9585
49.0293	-0.1735	3.5874	0.085377	-0.90076	-0.20438	3.505	-34.4481	714.3046	-48.573	282.2374	62.8678	747.8351	-0.0592	0.0182	-0.0073	-0.0462	0.0165	0.9585
49.0425	-0.21403	3.8523	0.11441	-0.93153	-0.24319	3.791	-31.8965	714.0619	-46.4845	282.2909	59.4349	742.4131	-0.0592	0.0182	-0.0073	-0.0462	0.0165	0.9585
49.0557	-0.30991	3.7207	0.14168	-0.88728	-0.30036	3.6901	-29.5354	717.0682	-44.8811	283.7325	56.5592	739.9417	-0.0592	0.0182	-0.0073	-0.0462	0.0165	0.9585
49.0689	-0.45688	3.2638	0.18848	-0.76293	-0.39514	3.2546	-27.1768	722.9152	-43.684	286.3794	54.0996	739.9609	-0.0592	0.0182	-0.0073	-0.0462	0.0165	0.9585
49.0821	-0.63857	2.5088	0.23566	-0.54737	-0.50527	2.4923	-24.6303	730.98	-42.8363	289.9674	51.9228	741.7975	-0.0592	0.0182	-0.0073	-0.0462	0.0165	0.9585
49.0954	-0.83844	1.4488	0.3002	-0.2243	-0.64041	1.3904	-21.7766	740.5217	-42.2476	294.1874	49.882	744.7168	-0.0592	0.0182	-0.0073	-0.0462	0.0165	0.9585
49.1086	-1.0175	0.073011	0.36423	0.21527	-0.76964	-0.069115	-18.5986	750.7238	-41.8412	298.6954	47.8837	747.9774	-0.0592	0.0182	-0.0073	-0.0462	0.0165	0.9585
49.1218	-1.134	-1.5868	0.42541	0.76289	-0.8703	-1.8541	-15.2018	760.7083	-41.5214	303.1165	45.8742	750.8579	-0.0592	0.0182	-0.0073	-0.0462	0.0165	0.9585
49.135	-1.1029	-3.4094	0.45107	1.374	-0.87707	-3.8339	-11.7877	769.5175	-41.2564	307.0331	43.9006	752.6285	-0.0592	0.0182	-0.0073	-0.0462	0.0165	0.9585
49.1482	-0.82198	-5.1158	0.41185	1.946	-0.71814	-5.6949	-8.5835	776.1635	-41.0635	310.0086	42.0654	752.5505	-0.0592	0.0182	-0.0073	-0.0462	0.0165	0.9585
49.1614	-0.15389	-6.2089	0.26026	2.2985	-0.29667	-6.8943	-5.7843	779.7512	-41.0409	311.6406	40.5285	749.9676	-0.0592	0.0182	-0.0073	-0.0462	0.0165	0.9585
49.1746	1.0494	-5.9142	-0.052748	2.1539	0.48991	-6.5978	-3.4475	779.6445	-41.2919	311.6436	39.4045	744.4011	-0.0592	0.0182	-0.0073	-0.0462	0.0165	0.9585
49.1879	2.9307	-3.1341	-0.57422	1.1219	1.7391	-3.6206	-1.4888	775.7029	-41.8899	309.9481	38.7281	735.7609	-0.0592	0.0182	-0.0073	-0.0462	0.0165	0.9585
49.2011	5.5882	3.5136	-1.342	-1.2928	3.5234	3.5275	0.28377	768.2875	-42.825	306.7069	38.4223	724.3584	-0.0592	0.0182	-0.0073	-0.0462	0.0165	0.9585
49.2143	8.9819	15.5717	-2.3533	-5.6438	5.8257	16.5318	2.0822	757.9923	-44.0482	302.1814	38.3745	710.6873	-0.0592	0.0182	-0.0073	-0.0462	0.0165	0.9585
49.2275	12.8581	34.4991	-3.5506	-12.4533	8.4873	36.9999	4.0408	745.3207	-45.4561	296.6073	38.4534	695.1734	-0.0592	0.0182	-0.0073	-0.0462	0.0165	0.9585
49.2407	16.6066	61.2208	-4.7647	-22.0451	11.1026	65.9844	6.1942	730.4433	-46.8947	290.0969	38.5152	677.9448	-0.0592	0.0182	-0.0073	-0.0462	0.0165	0.9585
49.2539	19.1592	95.4475	-5.7034	-34.3009	12.9672	103.2214	8.4718	713.1673	-48.1453	282.6228	38.3929	658.8248	-0.0592	0.0182	-0.0073	-0.0462	0.0165	0.9585
49.2671	19.1144	134.9736	-5.9009	-48.4057	13.0812	146.3699	10.7284	693.0487	-48.965	274.0591	37.9304	637.4311	-0.0592	0.0182	-0.0073	-0.0462	0.0165	0.9585
49.2804	15.5895	175.3624	-4.7975	-62.7394	10.5315	190.6319	12.774	669.6639	-49.1403	264.2809	37.0167	613.4077	-0.0592	0.0182	-0.0073	-0.0462	0.0165	0.9585
49.2936	9.6491	211.5608	-1.9156	-75.4742	5.2306	230.4392	14.4417	642.9328	-48.5768	253.2875	35.6429	586.6949	-0.0592	0.0182	-0.0073	-0.0462	0.0165	0.9585
49.3068	3.0075	241.2611	2.1556	-85.8104	-1.5518	263.0002	15.6368	613.378	-47.3185	241.2947	33.8979	557.7553	-0.0592	0.0182	-0.0073	-0.0462	0.0165	0.9585
49.32	-3.1162	265.4593	6.7967	-94.1365	-8.6928	289.1531	16.3622	581.9062	-45.5513	228.6552	31.955	527.378	-0.0592	0.0182	-0.0073	-0.0462	0.0165	0.9585
49.3332	-8.1253	286.7618	11.3152	-101.4274	-15.246	311.6486	16.722	549.4551	-43.3876	215.7303	29.8837	496.3702	-0.0592	0.0182	-0.0073	-0.0462	0.0165	0.9585
49.3464	-11.8273	307.6648	15.382	-108.6083	-20.7866	333.1818	16.8708	516.7707	-40.8292	202.8072	27.6348	465.3685	-0.0592	0.0182	-0.0073	-0.0462	0.0165	0.9585
49.3596	-14.2835	329.7363	18.6585	-116.2692	-24.9894	355.4477	16.9599	484.3399	-37.8092	190.0717	25.0899	434.7888	-0.0592	0.0182	-0.0073	-0.0462	0.0165	0.9585
49.3729	-15.5342	353.4803	21.1104	-124.6033	-27.8432	378.99	17.1165	452.3984	-34.3424	177.6045	22.2043	404.8222	-0.0592	0.0182	-0.0073	-0.0462	0.0165	0.9585
49.3861	-15.622	378.8034	22.7943	-133.5697	-29.4487	403.6916	17.3975	420.997	-30.564	165.3984	19.0445	375.5184	-0.0592	0.0182	-0.0073	-0.0462	0.0165	0.9585
49.3993	-14.6493	405.2695	24.0211	-142.9813	-30.1845	429.1329	17.8088	390.001	-26.7413	153.3683	15.8064	346.7652	-0.0592	0.0182	-0.0073	-0.0462	0.0165	0.9585
49.4125	-12.7286	432.1675	25.1052	-152.5558	-30.4354	454.5838	18.2637	359.1953	-23.1258	141.3977	12.7083	318.3974	-0.0592	0.0182	-0.0073	-0.0462	0.0165	0.9585
49.4257	-10.1293	458.8477	26.4364	-162.0238	-30.6993	479.4346	18.6328	328.3298	-19.9069	129.3671	9.9489	290.2077	-0.0592	0.0182	-0.0073	-0.0462	0.0165	0.9585
49.4389	-7.153	485.0255	28.2293	-171.2608	-31.2959	503.4061	18.7395	297.1894	-17.134	117.1835	7.635	262.005	-0.0592	0.0182	-0.0073	-0.0462	0.0165	0.9585
49.4521	-4.0793	511.0399	30.5986	-180.37	-32.4243	526.8965	18.379	265.6848	-14.7832	104.8109	5.8289	233.7114	-0.0592	0.0182	-0.0073	-0.0462	0.0165	0.9585
49.4654	-1.0854	537.7028	33.424	-189.6366	-34.0121	550.7618	17.4018	233.9038	-12.7761	92.2918	4.5311	205.3832	-0.0592	0.0182	-0.0073	-0.0462	0.0165	0.9585
49.4786	1.6787	565.8656	36.5905	-199.3595	-35.984	575.9006	15.703	202.1845	-11.0551	79.767	3.7377	177.3077	-0.0592	0.0182	-0.0073	-0.0462	0.0165	0.9585
49.4918	4.0258	596.0036	39.9504	-209.7028	-38.2475	602.8394	13.3437	171.0901	-9.5654	67.4705	3.3833	149.9333	-0.0592	0.0182	-0.0073	-0.0462	0.0165	0.9585
49.505	5.8314	628.0289	43.509	-220.6195	-40.8473	631.5369	10.5072	141.3752	-8.2835	55.708	3.379	123.8794	-0.0592	0.0182	-0.0073	-0.0462	0.0165	0.9585
49.5182	6.981	661.2998	47.2367	-231.8649	-43.7935	661.4295	7.4727	113.8007	-7.1683	44.7885	3.5832	99.764	-0.0592	0.0182	-0.0073	-0.0462	0.0165	0.9585
49.5314	7.4403	694.7109	51.1307	-243.0387	-47.0968	691.4773	4.5266	88.9739	-6.1712	34.9613	3.8459	78.0743	-0.0592	0.0182	-0.0073	-0.0462	0.0165	0.9585
49.5446	7.2278	726.955	55.055	-253.6826	-50.6231	720.4255	1.8953	67.287	-5.2261	26.3854	4.0254	59.1359	-0.0592	0.0182	-0.0073	-0.0462	0.0165	0.9585
49.5579	6.4404	756.6774	58.8473	-263.3385	-54.1826	746.9587	-0.23893	48.8768	-4.2938	19.1187	4.0255	43.0517	-0.0592	0.0182	-0.0073	-0.0462	0.0165	0.9585
49.5711	5.2586	782.6467	62.2543	-271.6072	-57.4776	769.8523	-1.7827	33.7152	-3.3619	13.1489	3.7986	29.8094	-0.0592	0.0182	-0.0073	-0.0462	0.0165	0.9585
49.5843	3.8415	803.8354	65.1161	-278.1641	-60.3004	788.0808	-2.661	21.6591	-2.4649	8.4183	3.3475	19.2769	-0.0592	0.0182	-0.0073	-0.0462	0.0165	0.9585
49.5975	2.3949	819.4415	67.3109	-282.7672	-62.4699	800.8145	-2.8926	12.5341	-1.6556	4.8543	2.7243	11.3071	-0.0592	0.0182	-0.0073	-0.0462	0.0165	0.9585
49.6107	1.0892	828.9395	68.8261	-285.264	-63.9159	807.5216	-2.6349	6.1178	-0.98965	2.3642	2.0386	5.7055	-0.0592	0.0182	-0.0073	-0.0462	0.0165	0.9585
49.6239	0.095639	832.1493	69.6568	-285.6194	-64.5835	808.0039	-2.1429	2.0613	-0.49352	0.80256	1.411	2.166	-0.0592	0.0182	-0.0073	-0.0462	0.0165	0.9585
49.6371	-0.47709	829.2998	69.8542	-283.935	-64.4891	802.4795	-1.5987	-0.13932	-0.16599	-0.0347	0.91201	0.25483	-0.0592	0.0182	-0.0073	-0.0462	0.0165	0.9585
49.6504	-0.56304	821.0731	69.4498	-280.4642	-63.6493	791.6175	-1.0981	-1.0242	0.026056	-0.36086	0.54648	-0.50348	-0.0592	0.0182	-0.0073	-0.0462	0.0165	0.9585
49.6636	-0.14202	808.5109	68.5272	-275.5775	-62.1437	776.4447	-0.70199	-1.0575	0.11465	-0.36094	0.30624	-0.5093	-0.0592	0.0182	-0.0073	-0.0462	0.0165	0.9585
49.6768	0.73309	792.8816	67.1891	-269.7174	-60.0933	758.2127	-0.40969	-0.615	0.14052	-0.18141	0.15726	-0.10258	-0.0592	0.0182	-0.0073	-0.0462	0.0165	0.9585
49.69	1.9816	775.5439	65.5674	-263.3465	-57.6562	738.2491	-0.22474	0.036551	0.12852	0.074249	0.080549	0.49005	-0.0592	0.0182	-0.0073	-0.0462	0.0165	0.9585
49.7032	3.5149	757.8771	63.7898	-256.9232	-54.9822	717.8951	-0.12704	0.70812	0.1	0.33553	0.049919	1.1033	-0.0592	0.0182	-0.0073	-0.0462	0.0165	0.9585
